<svg xmlns="http://www.w3.org/2000/svg" version="1.1" width="900" height="900">
  <polygon points="0,0 900,0 900,900 0,900" stroke="black" stroke-width="0" fill="white" />
  <polygon points="318.75,318.75 362.5,318.75 340.625,340.625" stroke="black" stroke-width="1.4638012498094806" fill="none" />
  <polygon points="362.5,318.75 406.25,318.75 384.375,340.625" stroke="black" stroke-width="1.4638012498094806" fill="none" />
  <polygon points="340.625,340.625 384.375,340.625 362.5,362.5" stroke="black" stroke-width="1.4638012498094806" fill="none" />
  <polygon points="362.5,275.0 406.25,275.0 384.375,296.875" stroke="black" stroke-width="1.4638012498094806" fill="none" />
  <polygon points="406.25,275.0 450.0,275.0 428.125,296.875" stroke="black" stroke-width="1.4638012498094806" fill="none" />
  <polygon points="384.375,296.875 428.125,296.875 406.25,318.75" stroke="black" stroke-width="1.4638012498094806" fill="none" />
  <polygon points="275.0,275.0 318.75,275.0 296.875,296.875" stroke="black" stroke-width="1.4638012498094806" fill="none" />
  <polygon points="318.75,275.0 362.5,275.0 340.625,296.875" stroke="black" stroke-width="1.4638012498094806" fill="none" />
  <polygon points="296.875,296.875 340.625,296.875 318.75,318.75" stroke="black" stroke-width="1.4638012498094806" fill="none" />
  <polygon points="493.75,318.75 537.5,318.75 515.625,340.625" stroke="black" stroke-width="1.4638012498094806" fill="none" />
  <polygon points="537.5,318.75 581.25,318.75 559.375,340.625" stroke="black" stroke-width="1.4638012498094806" fill="none" />
  <polygon points="515.625,340.625 559.375,340.625 537.5,362.5" stroke="black" stroke-width="1.4638012498094806" fill="none" />
  <polygon points="537.5,275.0 581.25,275.0 559.375,296.875" stroke="black" stroke-width="1.4638012498094806" fill="none" />
  <polygon points="581.25,275.0 625.0,275.0 603.125,296.875" stroke="black" stroke-width="1.4638012498094806" fill="none" />
  <polygon points="559.375,296.875 603.125,296.875 581.25,318.75" stroke="black" stroke-width="1.4638012498094806" fill="none" />
  <polygon points="450.0,275.0 493.75,275.0 471.875,296.875" stroke="black" stroke-width="1.4638012498094806" fill="none" />
  <polygon points="493.75,275.0 537.5,275.0 515.625,296.875" stroke="black" stroke-width="1.4638012498094806" fill="none" />
  <polygon points="471.875,296.875 515.625,296.875 493.75,318.75" stroke="black" stroke-width="1.4638012498094806" fill="none" />
  <polygon points="406.25,406.25 450.0,406.25 428.125,428.125" stroke="black" stroke-width="1.4638012498094806" fill="none" />
  <polygon points="450.0,406.25 493.75,406.25 471.875,428.125" stroke="black" stroke-width="1.4638012498094806" fill="none" />
  <polygon points="428.125,428.125 471.875,428.125 450,450" stroke="black" stroke-width="1.4638012498094806" fill="none" />
  <polygon points="450.0,362.5 493.75,362.5 471.875,384.375" stroke="black" stroke-width="1.4638012498094806" fill="none" />
  <polygon points="493.75,362.5 537.5,362.5 515.625,384.375" stroke="black" stroke-width="1.4638012498094806" fill="none" />
  <polygon points="471.875,384.375 515.625,384.375 493.75,406.25" stroke="black" stroke-width="1.4638012498094806" fill="none" />
  <polygon points="362.5,362.5 406.25,362.5 384.375,384.375" stroke="black" stroke-width="1.4638012498094806" fill="none" />
  <polygon points="406.25,362.5 450.0,362.5 428.125,384.375" stroke="black" stroke-width="1.4638012498094806" fill="none" />
  <polygon points="384.375,384.375 428.125,384.375 406.25,406.25" stroke="black" stroke-width="1.4638012498094806" fill="none" />
  <polygon points="493.75,143.75 537.5,143.75 515.625,165.625" stroke="black" stroke-width="1.4638012498094806" fill="none" />
  <polygon points="537.5,143.75 581.25,143.75 559.375,165.625" stroke="black" stroke-width="1.4638012498094806" fill="none" />
  <polygon points="515.625,165.625 559.375,165.625 537.5,187.5" stroke="black" stroke-width="1.4638012498094806" fill="none" />
  <polygon points="537.5,100.0 581.25,100.0 559.375,121.875" stroke="black" stroke-width="1.4638012498094806" fill="none" />
  <polygon points="581.25,100.0 625.0,100.0 603.125,121.875" stroke="black" stroke-width="1.4638012498094806" fill="none" />
  <polygon points="559.375,121.875 603.125,121.875 581.25,143.75" stroke="black" stroke-width="1.4638012498094806" fill="none" />
  <polygon points="450.0,100.0 493.75,100.0 471.875,121.875" stroke="black" stroke-width="1.4638012498094806" fill="none" />
  <polygon points="493.75,100.0 537.5,100.0 515.625,121.875" stroke="black" stroke-width="1.4638012498094806" fill="none" />
  <polygon points="471.875,121.875 515.625,121.875 493.75,143.75" stroke="black" stroke-width="1.4638012498094806" fill="none" />
  <polygon points="668.75,143.75 712.5,143.75 690.625,165.625" stroke="black" stroke-width="1.4638012498094806" fill="none" />
  <polygon points="712.5,143.75 756.25,143.75 734.375,165.625" stroke="black" stroke-width="1.4638012498094806" fill="none" />
  <polygon points="690.625,165.625 734.375,165.625 712.5,187.5" stroke="black" stroke-width="1.4638012498094806" fill="none" />
  <polygon points="712.5,100.0 756.25,100.0 734.375,121.875" stroke="black" stroke-width="1.4638012498094806" fill="none" />
  <polygon points="756.25,100.0 800,100 778.125,121.875" stroke="black" stroke-width="1.4638012498094806" fill="none" />
  <polygon points="734.375,121.875 778.125,121.875 756.25,143.75" stroke="black" stroke-width="1.4638012498094806" fill="none" />
  <polygon points="625.0,100.0 668.75,100.0 646.875,121.875" stroke="black" stroke-width="1.4638012498094806" fill="none" />
  <polygon points="668.75,100.0 712.5,100.0 690.625,121.875" stroke="black" stroke-width="1.4638012498094806" fill="none" />
  <polygon points="646.875,121.875 690.625,121.875 668.75,143.75" stroke="black" stroke-width="1.4638012498094806" fill="none" />
  <polygon points="581.25,231.25 625.0,231.25 603.125,253.125" stroke="black" stroke-width="1.4638012498094806" fill="none" />
  <polygon points="625.0,231.25 668.75,231.25 646.875,253.125" stroke="black" stroke-width="1.4638012498094806" fill="none" />
  <polygon points="603.125,253.125 646.875,253.125 625.0,275.0" stroke="black" stroke-width="1.4638012498094806" fill="none" />
  <polygon points="625.0,187.5 668.75,187.5 646.875,209.375" stroke="black" stroke-width="1.4638012498094806" fill="none" />
  <polygon points="668.75,187.5 712.5,187.5 690.625,209.375" stroke="black" stroke-width="1.4638012498094806" fill="none" />
  <polygon points="646.875,209.375 690.625,209.375 668.75,231.25" stroke="black" stroke-width="1.4638012498094806" fill="none" />
  <polygon points="537.5,187.5 581.25,187.5 559.375,209.375" stroke="black" stroke-width="1.4638012498094806" fill="none" />
  <polygon points="581.25,187.5 625.0,187.5 603.125,209.375" stroke="black" stroke-width="1.4638012498094806" fill="none" />
  <polygon points="559.375,209.375 603.125,209.375 581.25,231.25" stroke="black" stroke-width="1.4638012498094806" fill="none" />
  <polygon points="143.75,143.75 187.5,143.75 165.625,165.625" stroke="black" stroke-width="1.4638012498094806" fill="none" />
  <polygon points="187.5,143.75 231.25,143.75 209.375,165.625" stroke="black" stroke-width="1.4638012498094806" fill="none" />
  <polygon points="165.625,165.625 209.375,165.625 187.5,187.5" stroke="black" stroke-width="1.4638012498094806" fill="none" />
  <polygon points="187.5,100.0 231.25,100.0 209.375,121.875" stroke="black" stroke-width="1.4638012498094806" fill="none" />
  <polygon points="231.25,100.0 275.0,100.0 253.125,121.875" stroke="black" stroke-width="1.4638012498094806" fill="none" />
  <polygon points="209.375,121.875 253.125,121.875 231.25,143.75" stroke="black" stroke-width="1.4638012498094806" fill="none" />
  <polygon points="100,100 143.75,100.0 121.875,121.875" stroke="black" stroke-width="1.4638012498094806" fill="none" />
  <polygon points="143.75,100.0 187.5,100.0 165.625,121.875" stroke="black" stroke-width="1.4638012498094806" fill="none" />
  <polygon points="121.875,121.875 165.625,121.875 143.75,143.75" stroke="black" stroke-width="1.4638012498094806" fill="none" />
  <polygon points="318.75,143.75 362.5,143.75 340.625,165.625" stroke="black" stroke-width="1.4638012498094806" fill="none" />
  <polygon points="362.5,143.75 406.25,143.75 384.375,165.625" stroke="black" stroke-width="1.4638012498094806" fill="none" />
  <polygon points="340.625,165.625 384.375,165.625 362.5,187.5" stroke="black" stroke-width="1.4638012498094806" fill="none" />
  <polygon points="362.5,100.0 406.25,100.0 384.375,121.875" stroke="black" stroke-width="1.4638012498094806" fill="none" />
  <polygon points="406.25,100.0 450.0,100.0 428.125,121.875" stroke="black" stroke-width="1.4638012498094806" fill="none" />
  <polygon points="384.375,121.875 428.125,121.875 406.25,143.75" stroke="black" stroke-width="1.4638012498094806" fill="none" />
  <polygon points="275.0,100.0 318.75,100.0 296.875,121.875" stroke="black" stroke-width="1.4638012498094806" fill="none" />
  <polygon points="318.75,100.0 362.5,100.0 340.625,121.875" stroke="black" stroke-width="1.4638012498094806" fill="none" />
  <polygon points="296.875,121.875 340.625,121.875 318.75,143.75" stroke="black" stroke-width="1.4638012498094806" fill="none" />
  <polygon points="231.25,231.25 275.0,231.25 253.125,253.125" stroke="black" stroke-width="1.4638012498094806" fill="none" />
  <polygon points="275.0,231.25 318.75,231.25 296.875,253.125" stroke="black" stroke-width="1.4638012498094806" fill="none" />
  <polygon points="253.125,253.125 296.875,253.125 275.0,275.0" stroke="black" stroke-width="1.4638012498094806" fill="none" />
  <polygon points="275.0,187.5 318.75,187.5 296.875,209.375" stroke="black" stroke-width="1.4638012498094806" fill="none" />
  <polygon points="318.75,187.5 362.5,187.5 340.625,209.375" stroke="black" stroke-width="1.4638012498094806" fill="none" />
  <polygon points="296.875,209.375 340.625,209.375 318.75,231.25" stroke="black" stroke-width="1.4638012498094806" fill="none" />
  <polygon points="187.5,187.5 231.25,187.5 209.375,209.375" stroke="black" stroke-width="1.4638012498094806" fill="none" />
  <polygon points="231.25,187.5 275.0,187.5 253.125,209.375" stroke="black" stroke-width="1.4638012498094806" fill="none" />
  <polygon points="209.375,209.375 253.125,209.375 231.25,231.25" stroke="black" stroke-width="1.4638012498094806" fill="none" />
  <polygon points="581.25,318.75 581.25,362.5 559.375,340.625" stroke="black" stroke-width="1.4638012498094806" fill="none" />
  <polygon points="581.25,362.5 581.25,406.25 559.375,384.375" stroke="black" stroke-width="1.4638012498094806" fill="none" />
  <polygon points="559.375,340.625 559.375,384.375 537.5,362.5" stroke="black" stroke-width="1.4638012498094806" fill="none" />
  <polygon points="625.0,362.5 625.0,406.25 603.125,384.375" stroke="black" stroke-width="1.4638012498094806" fill="none" />
  <polygon points="625.0,406.25 625.0,450.0 603.125,428.125" stroke="black" stroke-width="1.4638012498094806" fill="none" />
  <polygon points="603.125,384.375 603.125,428.125 581.25,406.25" stroke="black" stroke-width="1.4638012498094806" fill="none" />
  <polygon points="625.0,275.0 625.0,318.75 603.125,296.875" stroke="black" stroke-width="1.4638012498094806" fill="none" />
  <polygon points="625.0,318.75 625.0,362.5 603.125,340.625" stroke="black" stroke-width="1.4638012498094806" fill="none" />
  <polygon points="603.125,296.875 603.125,340.625 581.25,318.75" stroke="black" stroke-width="1.4638012498094806" fill="none" />
  <polygon points="581.25,493.75 581.25,537.5 559.375,515.625" stroke="black" stroke-width="1.4638012498094806" fill="none" />
  <polygon points="581.25,537.5 581.25,581.25 559.375,559.375" stroke="black" stroke-width="1.4638012498094806" fill="none" />
  <polygon points="559.375,515.625 559.375,559.375 537.5,537.5" stroke="black" stroke-width="1.4638012498094806" fill="none" />
  <polygon points="625.0,537.5 625.0,581.25 603.125,559.375" stroke="black" stroke-width="1.4638012498094806" fill="none" />
  <polygon points="625.0,581.25 625.0,625.0 603.125,603.125" stroke="black" stroke-width="1.4638012498094806" fill="none" />
  <polygon points="603.125,559.375 603.125,603.125 581.25,581.25" stroke="black" stroke-width="1.4638012498094806" fill="none" />
  <polygon points="625.0,450.0 625.0,493.75 603.125,471.875" stroke="black" stroke-width="1.4638012498094806" fill="none" />
  <polygon points="625.0,493.75 625.0,537.5 603.125,515.625" stroke="black" stroke-width="1.4638012498094806" fill="none" />
  <polygon points="603.125,471.875 603.125,515.625 581.25,493.75" stroke="black" stroke-width="1.4638012498094806" fill="none" />
  <polygon points="493.75,406.25 493.75,450.0 471.875,428.125" stroke="black" stroke-width="1.4638012498094806" fill="none" />
  <polygon points="493.75,450.0 493.75,493.75 471.875,471.875" stroke="black" stroke-width="1.4638012498094806" fill="none" />
  <polygon points="471.875,428.125 471.875,471.875 450,450" stroke="black" stroke-width="1.4638012498094806" fill="none" />
  <polygon points="537.5,450.0 537.5,493.75 515.625,471.875" stroke="black" stroke-width="1.4638012498094806" fill="none" />
  <polygon points="537.5,493.75 537.5,537.5 515.625,515.625" stroke="black" stroke-width="1.4638012498094806" fill="none" />
  <polygon points="515.625,471.875 515.625,515.625 493.75,493.75" stroke="black" stroke-width="1.4638012498094806" fill="none" />
  <polygon points="537.5,362.5 537.5,406.25 515.625,384.375" stroke="black" stroke-width="1.4638012498094806" fill="none" />
  <polygon points="537.5,406.25 537.5,450.0 515.625,428.125" stroke="black" stroke-width="1.4638012498094806" fill="none" />
  <polygon points="515.625,384.375 515.625,428.125 493.75,406.25" stroke="black" stroke-width="1.4638012498094806" fill="none" />
  <polygon points="756.25,493.75 756.25,537.5 734.375,515.625" stroke="black" stroke-width="1.4638012498094806" fill="none" />
  <polygon points="756.25,537.5 756.25,581.25 734.375,559.375" stroke="black" stroke-width="1.4638012498094806" fill="none" />
  <polygon points="734.375,515.625 734.375,559.375 712.5,537.5" stroke="black" stroke-width="1.4638012498094806" fill="none" />
  <polygon points="800.0,537.5 800.0,581.25 778.125,559.375" stroke="black" stroke-width="1.4638012498094806" fill="none" />
  <polygon points="800.0,581.25 800.0,625.0 778.125,603.125" stroke="black" stroke-width="1.4638012498094806" fill="none" />
  <polygon points="778.125,559.375 778.125,603.125 756.25,581.25" stroke="black" stroke-width="1.4638012498094806" fill="none" />
  <polygon points="800.0,450.0 800.0,493.75 778.125,471.875" stroke="black" stroke-width="1.4638012498094806" fill="none" />
  <polygon points="800.0,493.75 800.0,537.5 778.125,515.625" stroke="black" stroke-width="1.4638012498094806" fill="none" />
  <polygon points="778.125,471.875 778.125,515.625 756.25,493.75" stroke="black" stroke-width="1.4638012498094806" fill="none" />
  <polygon points="756.25,668.75 756.25,712.5 734.375,690.625" stroke="black" stroke-width="1.4638012498094806" fill="none" />
  <polygon points="756.25,712.5 756.25,756.25 734.375,734.375" stroke="black" stroke-width="1.4638012498094806" fill="none" />
  <polygon points="734.375,690.625 734.375,734.375 712.5,712.5" stroke="black" stroke-width="1.4638012498094806" fill="none" />
  <polygon points="800.0,712.5 800.0,756.25 778.125,734.375" stroke="black" stroke-width="1.4638012498094806" fill="none" />
  <polygon points="800.0,756.25 800,800 778.125,778.125" stroke="black" stroke-width="1.4638012498094806" fill="none" />
  <polygon points="778.125,734.375 778.125,778.125 756.25,756.25" stroke="black" stroke-width="1.4638012498094806" fill="none" />
  <polygon points="800.0,625.0 800.0,668.75 778.125,646.875" stroke="black" stroke-width="1.4638012498094806" fill="none" />
  <polygon points="800.0,668.75 800.0,712.5 778.125,690.625" stroke="black" stroke-width="1.4638012498094806" fill="none" />
  <polygon points="778.125,646.875 778.125,690.625 756.25,668.75" stroke="black" stroke-width="1.4638012498094806" fill="none" />
  <polygon points="668.75,581.25 668.75,625.0 646.875,603.125" stroke="black" stroke-width="1.4638012498094806" fill="none" />
  <polygon points="668.75,625.0 668.75,668.75 646.875,646.875" stroke="black" stroke-width="1.4638012498094806" fill="none" />
  <polygon points="646.875,603.125 646.875,646.875 625.0,625.0" stroke="black" stroke-width="1.4638012498094806" fill="none" />
  <polygon points="712.5,625.0 712.5,668.75 690.625,646.875" stroke="black" stroke-width="1.4638012498094806" fill="none" />
  <polygon points="712.5,668.75 712.5,712.5 690.625,690.625" stroke="black" stroke-width="1.4638012498094806" fill="none" />
  <polygon points="690.625,646.875 690.625,690.625 668.75,668.75" stroke="black" stroke-width="1.4638012498094806" fill="none" />
  <polygon points="712.5,537.5 712.5,581.25 690.625,559.375" stroke="black" stroke-width="1.4638012498094806" fill="none" />
  <polygon points="712.5,581.25 712.5,625.0 690.625,603.125" stroke="black" stroke-width="1.4638012498094806" fill="none" />
  <polygon points="690.625,559.375 690.625,603.125 668.75,581.25" stroke="black" stroke-width="1.4638012498094806" fill="none" />
  <polygon points="756.25,143.75 756.25,187.5 734.375,165.625" stroke="black" stroke-width="1.4638012498094806" fill="none" />
  <polygon points="756.25,187.5 756.25,231.25 734.375,209.375" stroke="black" stroke-width="1.4638012498094806" fill="none" />
  <polygon points="734.375,165.625 734.375,209.375 712.5,187.5" stroke="black" stroke-width="1.4638012498094806" fill="none" />
  <polygon points="800.0,187.5 800.0,231.25 778.125,209.375" stroke="black" stroke-width="1.4638012498094806" fill="none" />
  <polygon points="800.0,231.25 800.0,275.0 778.125,253.125" stroke="black" stroke-width="1.4638012498094806" fill="none" />
  <polygon points="778.125,209.375 778.125,253.125 756.25,231.25" stroke="black" stroke-width="1.4638012498094806" fill="none" />
  <polygon points="800,100 800.0,143.75 778.125,121.875" stroke="black" stroke-width="1.4638012498094806" fill="none" />
  <polygon points="800.0,143.75 800.0,187.5 778.125,165.625" stroke="black" stroke-width="1.4638012498094806" fill="none" />
  <polygon points="778.125,121.875 778.125,165.625 756.25,143.75" stroke="black" stroke-width="1.4638012498094806" fill="none" />
  <polygon points="756.25,318.75 756.25,362.5 734.375,340.625" stroke="black" stroke-width="1.4638012498094806" fill="none" />
  <polygon points="756.25,362.5 756.25,406.25 734.375,384.375" stroke="black" stroke-width="1.4638012498094806" fill="none" />
  <polygon points="734.375,340.625 734.375,384.375 712.5,362.5" stroke="black" stroke-width="1.4638012498094806" fill="none" />
  <polygon points="800.0,362.5 800.0,406.25 778.125,384.375" stroke="black" stroke-width="1.4638012498094806" fill="none" />
  <polygon points="800.0,406.25 800.0,450.0 778.125,428.125" stroke="black" stroke-width="1.4638012498094806" fill="none" />
  <polygon points="778.125,384.375 778.125,428.125 756.25,406.25" stroke="black" stroke-width="1.4638012498094806" fill="none" />
  <polygon points="800.0,275.0 800.0,318.75 778.125,296.875" stroke="black" stroke-width="1.4638012498094806" fill="none" />
  <polygon points="800.0,318.75 800.0,362.5 778.125,340.625" stroke="black" stroke-width="1.4638012498094806" fill="none" />
  <polygon points="778.125,296.875 778.125,340.625 756.25,318.75" stroke="black" stroke-width="1.4638012498094806" fill="none" />
  <polygon points="668.75,231.25 668.75,275.0 646.875,253.125" stroke="black" stroke-width="1.4638012498094806" fill="none" />
  <polygon points="668.75,275.0 668.75,318.75 646.875,296.875" stroke="black" stroke-width="1.4638012498094806" fill="none" />
  <polygon points="646.875,253.125 646.875,296.875 625.0,275.0" stroke="black" stroke-width="1.4638012498094806" fill="none" />
  <polygon points="712.5,275.0 712.5,318.75 690.625,296.875" stroke="black" stroke-width="1.4638012498094806" fill="none" />
  <polygon points="712.5,318.75 712.5,362.5 690.625,340.625" stroke="black" stroke-width="1.4638012498094806" fill="none" />
  <polygon points="690.625,296.875 690.625,340.625 668.75,318.75" stroke="black" stroke-width="1.4638012498094806" fill="none" />
  <polygon points="712.5,187.5 712.5,231.25 690.625,209.375" stroke="black" stroke-width="1.4638012498094806" fill="none" />
  <polygon points="712.5,231.25 712.5,275.0 690.625,253.125" stroke="black" stroke-width="1.4638012498094806" fill="none" />
  <polygon points="690.625,209.375 690.625,253.125 668.75,231.25" stroke="black" stroke-width="1.4638012498094806" fill="none" />
  <polygon points="581.25,581.25 537.5,581.25 559.375,559.375" stroke="black" stroke-width="1.4638012498094806" fill="none" />
  <polygon points="537.5,581.25 493.75,581.25 515.625,559.375" stroke="black" stroke-width="1.4638012498094806" fill="none" />
  <polygon points="559.375,559.375 515.625,559.375 537.5,537.5" stroke="black" stroke-width="1.4638012498094806" fill="none" />
  <polygon points="537.5,625.0 493.75,625.0 515.625,603.125" stroke="black" stroke-width="1.4638012498094806" fill="none" />
  <polygon points="493.75,625.0 450.0,625.0 471.875,603.125" stroke="black" stroke-width="1.4638012498094806" fill="none" />
  <polygon points="515.625,603.125 471.875,603.125 493.75,581.25" stroke="black" stroke-width="1.4638012498094806" fill="none" />
  <polygon points="625.0,625.0 581.25,625.0 603.125,603.125" stroke="black" stroke-width="1.4638012498094806" fill="none" />
  <polygon points="581.25,625.0 537.5,625.0 559.375,603.125" stroke="black" stroke-width="1.4638012498094806" fill="none" />
  <polygon points="603.125,603.125 559.375,603.125 581.25,581.25" stroke="black" stroke-width="1.4638012498094806" fill="none" />
  <polygon points="406.25,581.25 362.5,581.25 384.375,559.375" stroke="black" stroke-width="1.4638012498094806" fill="none" />
  <polygon points="362.5,581.25 318.75,581.25 340.625,559.375" stroke="black" stroke-width="1.4638012498094806" fill="none" />
  <polygon points="384.375,559.375 340.625,559.375 362.5,537.5" stroke="black" stroke-width="1.4638012498094806" fill="none" />
  <polygon points="362.5,625.0 318.75,625.0 340.625,603.125" stroke="black" stroke-width="1.4638012498094806" fill="none" />
  <polygon points="318.75,625.0 275.0,625.0 296.875,603.125" stroke="black" stroke-width="1.4638012498094806" fill="none" />
  <polygon points="340.625,603.125 296.875,603.125 318.75,581.25" stroke="black" stroke-width="1.4638012498094806" fill="none" />
  <polygon points="450.0,625.0 406.25,625.0 428.125,603.125" stroke="black" stroke-width="1.4638012498094806" fill="none" />
  <polygon points="406.25,625.0 362.5,625.0 384.375,603.125" stroke="black" stroke-width="1.4638012498094806" fill="none" />
  <polygon points="428.125,603.125 384.375,603.125 406.25,581.25" stroke="black" stroke-width="1.4638012498094806" fill="none" />
  <polygon points="493.75,493.75 450.0,493.75 471.875,471.875" stroke="black" stroke-width="1.4638012498094806" fill="none" />
  <polygon points="450.0,493.75 406.25,493.75 428.125,471.875" stroke="black" stroke-width="1.4638012498094806" fill="none" />
  <polygon points="471.875,471.875 428.125,471.875 450,450" stroke="black" stroke-width="1.4638012498094806" fill="none" />
  <polygon points="450.0,537.5 406.25,537.5 428.125,515.625" stroke="black" stroke-width="1.4638012498094806" fill="none" />
  <polygon points="406.25,537.5 362.5,537.5 384.375,515.625" stroke="black" stroke-width="1.4638012498094806" fill="none" />
  <polygon points="428.125,515.625 384.375,515.625 406.25,493.75" stroke="black" stroke-width="1.4638012498094806" fill="none" />
  <polygon points="537.5,537.5 493.75,537.5 515.625,515.625" stroke="black" stroke-width="1.4638012498094806" fill="none" />
  <polygon points="493.75,537.5 450.0,537.5 471.875,515.625" stroke="black" stroke-width="1.4638012498094806" fill="none" />
  <polygon points="515.625,515.625 471.875,515.625 493.75,493.75" stroke="black" stroke-width="1.4638012498094806" fill="none" />
  <polygon points="406.25,756.25 362.5,756.25 384.375,734.375" stroke="black" stroke-width="1.4638012498094806" fill="none" />
  <polygon points="362.5,756.25 318.75,756.25 340.625,734.375" stroke="black" stroke-width="1.4638012498094806" fill="none" />
  <polygon points="384.375,734.375 340.625,734.375 362.5,712.5" stroke="black" stroke-width="1.4638012498094806" fill="none" />
  <polygon points="362.5,800.0 318.75,800.0 340.625,778.125" stroke="black" stroke-width="1.4638012498094806" fill="none" />
  <polygon points="318.75,800.0 275.0,800.0 296.875,778.125" stroke="black" stroke-width="1.4638012498094806" fill="none" />
  <polygon points="340.625,778.125 296.875,778.125 318.75,756.25" stroke="black" stroke-width="1.4638012498094806" fill="none" />
  <polygon points="450.0,800.0 406.25,800.0 428.125,778.125" stroke="black" stroke-width="1.4638012498094806" fill="none" />
  <polygon points="406.25,800.0 362.5,800.0 384.375,778.125" stroke="black" stroke-width="1.4638012498094806" fill="none" />
  <polygon points="428.125,778.125 384.375,778.125 406.25,756.25" stroke="black" stroke-width="1.4638012498094806" fill="none" />
  <polygon points="231.25,756.25 187.5,756.25 209.375,734.375" stroke="black" stroke-width="1.4638012498094806" fill="none" />
  <polygon points="187.5,756.25 143.75,756.25 165.625,734.375" stroke="black" stroke-width="1.4638012498094806" fill="none" />
  <polygon points="209.375,734.375 165.625,734.375 187.5,712.5" stroke="black" stroke-width="1.4638012498094806" fill="none" />
  <polygon points="187.5,800.0 143.75,800.0 165.625,778.125" stroke="black" stroke-width="1.4638012498094806" fill="none" />
  <polygon points="143.75,800.0 100,800 121.875,778.125" stroke="black" stroke-width="1.4638012498094806" fill="none" />
  <polygon points="165.625,778.125 121.875,778.125 143.75,756.25" stroke="black" stroke-width="1.4638012498094806" fill="none" />
  <polygon points="275.0,800.0 231.25,800.0 253.125,778.125" stroke="black" stroke-width="1.4638012498094806" fill="none" />
  <polygon points="231.25,800.0 187.5,800.0 209.375,778.125" stroke="black" stroke-width="1.4638012498094806" fill="none" />
  <polygon points="253.125,778.125 209.375,778.125 231.25,756.25" stroke="black" stroke-width="1.4638012498094806" fill="none" />
  <polygon points="318.75,668.75 275.0,668.75 296.875,646.875" stroke="black" stroke-width="1.4638012498094806" fill="none" />
  <polygon points="275.0,668.75 231.25,668.75 253.125,646.875" stroke="black" stroke-width="1.4638012498094806" fill="none" />
  <polygon points="296.875,646.875 253.125,646.875 275.0,625.0" stroke="black" stroke-width="1.4638012498094806" fill="none" />
  <polygon points="275.0,712.5 231.25,712.5 253.125,690.625" stroke="black" stroke-width="1.4638012498094806" fill="none" />
  <polygon points="231.25,712.5 187.5,712.5 209.375,690.625" stroke="black" stroke-width="1.4638012498094806" fill="none" />
  <polygon points="253.125,690.625 209.375,690.625 231.25,668.75" stroke="black" stroke-width="1.4638012498094806" fill="none" />
  <polygon points="362.5,712.5 318.75,712.5 340.625,690.625" stroke="black" stroke-width="1.4638012498094806" fill="none" />
  <polygon points="318.75,712.5 275.0,712.5 296.875,690.625" stroke="black" stroke-width="1.4638012498094806" fill="none" />
  <polygon points="340.625,690.625 296.875,690.625 318.75,668.75" stroke="black" stroke-width="1.4638012498094806" fill="none" />
  <polygon points="756.25,756.25 712.5,756.25 734.375,734.375" stroke="black" stroke-width="1.4638012498094806" fill="none" />
  <polygon points="712.5,756.25 668.75,756.25 690.625,734.375" stroke="black" stroke-width="1.4638012498094806" fill="none" />
  <polygon points="734.375,734.375 690.625,734.375 712.5,712.5" stroke="black" stroke-width="1.4638012498094806" fill="none" />
  <polygon points="712.5,800.0 668.75,800.0 690.625,778.125" stroke="black" stroke-width="1.4638012498094806" fill="none" />
  <polygon points="668.75,800.0 625.0,800.0 646.875,778.125" stroke="black" stroke-width="1.4638012498094806" fill="none" />
  <polygon points="690.625,778.125 646.875,778.125 668.75,756.25" stroke="black" stroke-width="1.4638012498094806" fill="none" />
  <polygon points="800,800 756.25,800.0 778.125,778.125" stroke="black" stroke-width="1.4638012498094806" fill="none" />
  <polygon points="756.25,800.0 712.5,800.0 734.375,778.125" stroke="black" stroke-width="1.4638012498094806" fill="none" />
  <polygon points="778.125,778.125 734.375,778.125 756.25,756.25" stroke="black" stroke-width="1.4638012498094806" fill="none" />
  <polygon points="581.25,756.25 537.5,756.25 559.375,734.375" stroke="black" stroke-width="1.4638012498094806" fill="none" />
  <polygon points="537.5,756.25 493.75,756.25 515.625,734.375" stroke="black" stroke-width="1.4638012498094806" fill="none" />
  <polygon points="559.375,734.375 515.625,734.375 537.5,712.5" stroke="black" stroke-width="1.4638012498094806" fill="none" />
  <polygon points="537.5,800.0 493.75,800.0 515.625,778.125" stroke="black" stroke-width="1.4638012498094806" fill="none" />
  <polygon points="493.75,800.0 450.0,800.0 471.875,778.125" stroke="black" stroke-width="1.4638012498094806" fill="none" />
  <polygon points="515.625,778.125 471.875,778.125 493.75,756.25" stroke="black" stroke-width="1.4638012498094806" fill="none" />
  <polygon points="625.0,800.0 581.25,800.0 603.125,778.125" stroke="black" stroke-width="1.4638012498094806" fill="none" />
  <polygon points="581.25,800.0 537.5,800.0 559.375,778.125" stroke="black" stroke-width="1.4638012498094806" fill="none" />
  <polygon points="603.125,778.125 559.375,778.125 581.25,756.25" stroke="black" stroke-width="1.4638012498094806" fill="none" />
  <polygon points="668.75,668.75 625.0,668.75 646.875,646.875" stroke="black" stroke-width="1.4638012498094806" fill="none" />
  <polygon points="625.0,668.75 581.25,668.75 603.125,646.875" stroke="black" stroke-width="1.4638012498094806" fill="none" />
  <polygon points="646.875,646.875 603.125,646.875 625.0,625.0" stroke="black" stroke-width="1.4638012498094806" fill="none" />
  <polygon points="625.0,712.5 581.25,712.5 603.125,690.625" stroke="black" stroke-width="1.4638012498094806" fill="none" />
  <polygon points="581.25,712.5 537.5,712.5 559.375,690.625" stroke="black" stroke-width="1.4638012498094806" fill="none" />
  <polygon points="603.125,690.625 559.375,690.625 581.25,668.75" stroke="black" stroke-width="1.4638012498094806" fill="none" />
  <polygon points="712.5,712.5 668.75,712.5 690.625,690.625" stroke="black" stroke-width="1.4638012498094806" fill="none" />
  <polygon points="668.75,712.5 625.0,712.5 646.875,690.625" stroke="black" stroke-width="1.4638012498094806" fill="none" />
  <polygon points="690.625,690.625 646.875,690.625 668.75,668.75" stroke="black" stroke-width="1.4638012498094806" fill="none" />
  <polygon points="318.75,581.25 318.75,537.5 340.625,559.375" stroke="black" stroke-width="1.4638012498094806" fill="none" />
  <polygon points="318.75,537.5 318.75,493.75 340.625,515.625" stroke="black" stroke-width="1.4638012498094806" fill="none" />
  <polygon points="340.625,559.375 340.625,515.625 362.5,537.5" stroke="black" stroke-width="1.4638012498094806" fill="none" />
  <polygon points="275.0,537.5 275.0,493.75 296.875,515.625" stroke="black" stroke-width="1.4638012498094806" fill="none" />
  <polygon points="275.0,493.75 275.0,450.0 296.875,471.875" stroke="black" stroke-width="1.4638012498094806" fill="none" />
  <polygon points="296.875,515.625 296.875,471.875 318.75,493.75" stroke="black" stroke-width="1.4638012498094806" fill="none" />
  <polygon points="275.0,625.0 275.0,581.25 296.875,603.125" stroke="black" stroke-width="1.4638012498094806" fill="none" />
  <polygon points="275.0,581.25 275.0,537.5 296.875,559.375" stroke="black" stroke-width="1.4638012498094806" fill="none" />
  <polygon points="296.875,603.125 296.875,559.375 318.75,581.25" stroke="black" stroke-width="1.4638012498094806" fill="none" />
  <polygon points="318.75,406.25 318.75,362.5 340.625,384.375" stroke="black" stroke-width="1.4638012498094806" fill="none" />
  <polygon points="318.75,362.5 318.75,318.75 340.625,340.625" stroke="black" stroke-width="1.4638012498094806" fill="none" />
  <polygon points="340.625,384.375 340.625,340.625 362.5,362.5" stroke="black" stroke-width="1.4638012498094806" fill="none" />
  <polygon points="275.0,362.5 275.0,318.75 296.875,340.625" stroke="black" stroke-width="1.4638012498094806" fill="none" />
  <polygon points="275.0,318.75 275.0,275.0 296.875,296.875" stroke="black" stroke-width="1.4638012498094806" fill="none" />
  <polygon points="296.875,340.625 296.875,296.875 318.75,318.75" stroke="black" stroke-width="1.4638012498094806" fill="none" />
  <polygon points="275.0,450.0 275.0,406.25 296.875,428.125" stroke="black" stroke-width="1.4638012498094806" fill="none" />
  <polygon points="275.0,406.25 275.0,362.5 296.875,384.375" stroke="black" stroke-width="1.4638012498094806" fill="none" />
  <polygon points="296.875,428.125 296.875,384.375 318.75,406.25" stroke="black" stroke-width="1.4638012498094806" fill="none" />
  <polygon points="406.25,493.75 406.25,450.0 428.125,471.875" stroke="black" stroke-width="1.4638012498094806" fill="none" />
  <polygon points="406.25,450.0 406.25,406.25 428.125,428.125" stroke="black" stroke-width="1.4638012498094806" fill="none" />
  <polygon points="428.125,471.875 428.125,428.125 450,450" stroke="black" stroke-width="1.4638012498094806" fill="none" />
  <polygon points="362.5,450.0 362.5,406.25 384.375,428.125" stroke="black" stroke-width="1.4638012498094806" fill="none" />
  <polygon points="362.5,406.25 362.5,362.5 384.375,384.375" stroke="black" stroke-width="1.4638012498094806" fill="none" />
  <polygon points="384.375,428.125 384.375,384.375 406.25,406.25" stroke="black" stroke-width="1.4638012498094806" fill="none" />
  <polygon points="362.5,537.5 362.5,493.75 384.375,515.625" stroke="black" stroke-width="1.4638012498094806" fill="none" />
  <polygon points="362.5,493.75 362.5,450.0 384.375,471.875" stroke="black" stroke-width="1.4638012498094806" fill="none" />
  <polygon points="384.375,515.625 384.375,471.875 406.25,493.75" stroke="black" stroke-width="1.4638012498094806" fill="none" />
  <polygon points="143.75,406.25 143.75,362.5 165.625,384.375" stroke="black" stroke-width="1.4638012498094806" fill="none" />
  <polygon points="143.75,362.5 143.75,318.75 165.625,340.625" stroke="black" stroke-width="1.4638012498094806" fill="none" />
  <polygon points="165.625,384.375 165.625,340.625 187.5,362.5" stroke="black" stroke-width="1.4638012498094806" fill="none" />
  <polygon points="100.0,362.5 100.0,318.75 121.875,340.625" stroke="black" stroke-width="1.4638012498094806" fill="none" />
  <polygon points="100.0,318.75 100.0,275.0 121.875,296.875" stroke="black" stroke-width="1.4638012498094806" fill="none" />
  <polygon points="121.875,340.625 121.875,296.875 143.75,318.75" stroke="black" stroke-width="1.4638012498094806" fill="none" />
  <polygon points="100.0,450.0 100.0,406.25 121.875,428.125" stroke="black" stroke-width="1.4638012498094806" fill="none" />
  <polygon points="100.0,406.25 100.0,362.5 121.875,384.375" stroke="black" stroke-width="1.4638012498094806" fill="none" />
  <polygon points="121.875,428.125 121.875,384.375 143.75,406.25" stroke="black" stroke-width="1.4638012498094806" fill="none" />
  <polygon points="143.75,231.25 143.75,187.5 165.625,209.375" stroke="black" stroke-width="1.4638012498094806" fill="none" />
  <polygon points="143.75,187.5 143.75,143.75 165.625,165.625" stroke="black" stroke-width="1.4638012498094806" fill="none" />
  <polygon points="165.625,209.375 165.625,165.625 187.5,187.5" stroke="black" stroke-width="1.4638012498094806" fill="none" />
  <polygon points="100.0,187.5 100.0,143.75 121.875,165.625" stroke="black" stroke-width="1.4638012498094806" fill="none" />
  <polygon points="100.0,143.75 100,100 121.875,121.875" stroke="black" stroke-width="1.4638012498094806" fill="none" />
  <polygon points="121.875,165.625 121.875,121.875 143.75,143.75" stroke="black" stroke-width="1.4638012498094806" fill="none" />
  <polygon points="100.0,275.0 100.0,231.25 121.875,253.125" stroke="black" stroke-width="1.4638012498094806" fill="none" />
  <polygon points="100.0,231.25 100.0,187.5 121.875,209.375" stroke="black" stroke-width="1.4638012498094806" fill="none" />
  <polygon points="121.875,253.125 121.875,209.375 143.75,231.25" stroke="black" stroke-width="1.4638012498094806" fill="none" />
  <polygon points="231.25,318.75 231.25,275.0 253.125,296.875" stroke="black" stroke-width="1.4638012498094806" fill="none" />
  <polygon points="231.25,275.0 231.25,231.25 253.125,253.125" stroke="black" stroke-width="1.4638012498094806" fill="none" />
  <polygon points="253.125,296.875 253.125,253.125 275.0,275.0" stroke="black" stroke-width="1.4638012498094806" fill="none" />
  <polygon points="187.5,275.0 187.5,231.25 209.375,253.125" stroke="black" stroke-width="1.4638012498094806" fill="none" />
  <polygon points="187.5,231.25 187.5,187.5 209.375,209.375" stroke="black" stroke-width="1.4638012498094806" fill="none" />
  <polygon points="209.375,253.125 209.375,209.375 231.25,231.25" stroke="black" stroke-width="1.4638012498094806" fill="none" />
  <polygon points="187.5,362.5 187.5,318.75 209.375,340.625" stroke="black" stroke-width="1.4638012498094806" fill="none" />
  <polygon points="187.5,318.75 187.5,275.0 209.375,296.875" stroke="black" stroke-width="1.4638012498094806" fill="none" />
  <polygon points="209.375,340.625 209.375,296.875 231.25,318.75" stroke="black" stroke-width="1.4638012498094806" fill="none" />
  <polygon points="143.75,756.25 143.75,712.5 165.625,734.375" stroke="black" stroke-width="1.4638012498094806" fill="none" />
  <polygon points="143.75,712.5 143.75,668.75 165.625,690.625" stroke="black" stroke-width="1.4638012498094806" fill="none" />
  <polygon points="165.625,734.375 165.625,690.625 187.5,712.5" stroke="black" stroke-width="1.4638012498094806" fill="none" />
  <polygon points="100.0,712.5 100.0,668.75 121.875,690.625" stroke="black" stroke-width="1.4638012498094806" fill="none" />
  <polygon points="100.0,668.75 100.0,625.0 121.875,646.875" stroke="black" stroke-width="1.4638012498094806" fill="none" />
  <polygon points="121.875,690.625 121.875,646.875 143.75,668.75" stroke="black" stroke-width="1.4638012498094806" fill="none" />
  <polygon points="100,800 100.0,756.25 121.875,778.125" stroke="black" stroke-width="1.4638012498094806" fill="none" />
  <polygon points="100.0,756.25 100.0,712.5 121.875,734.375" stroke="black" stroke-width="1.4638012498094806" fill="none" />
  <polygon points="121.875,778.125 121.875,734.375 143.75,756.25" stroke="black" stroke-width="1.4638012498094806" fill="none" />
  <polygon points="143.75,581.25 143.75,537.5 165.625,559.375" stroke="black" stroke-width="1.4638012498094806" fill="none" />
  <polygon points="143.75,537.5 143.75,493.75 165.625,515.625" stroke="black" stroke-width="1.4638012498094806" fill="none" />
  <polygon points="165.625,559.375 165.625,515.625 187.5,537.5" stroke="black" stroke-width="1.4638012498094806" fill="none" />
  <polygon points="100.0,537.5 100.0,493.75 121.875,515.625" stroke="black" stroke-width="1.4638012498094806" fill="none" />
  <polygon points="100.0,493.75 100.0,450.0 121.875,471.875" stroke="black" stroke-width="1.4638012498094806" fill="none" />
  <polygon points="121.875,515.625 121.875,471.875 143.75,493.75" stroke="black" stroke-width="1.4638012498094806" fill="none" />
  <polygon points="100.0,625.0 100.0,581.25 121.875,603.125" stroke="black" stroke-width="1.4638012498094806" fill="none" />
  <polygon points="100.0,581.25 100.0,537.5 121.875,559.375" stroke="black" stroke-width="1.4638012498094806" fill="none" />
  <polygon points="121.875,603.125 121.875,559.375 143.75,581.25" stroke="black" stroke-width="1.4638012498094806" fill="none" />
  <polygon points="231.25,668.75 231.25,625.0 253.125,646.875" stroke="black" stroke-width="1.4638012498094806" fill="none" />
  <polygon points="231.25,625.0 231.25,581.25 253.125,603.125" stroke="black" stroke-width="1.4638012498094806" fill="none" />
  <polygon points="253.125,646.875 253.125,603.125 275.0,625.0" stroke="black" stroke-width="1.4638012498094806" fill="none" />
  <polygon points="187.5,625.0 187.5,581.25 209.375,603.125" stroke="black" stroke-width="1.4638012498094806" fill="none" />
  <polygon points="187.5,581.25 187.5,537.5 209.375,559.375" stroke="black" stroke-width="1.4638012498094806" fill="none" />
  <polygon points="209.375,603.125 209.375,559.375 231.25,581.25" stroke="black" stroke-width="1.4638012498094806" fill="none" />
  <polygon points="187.5,712.5 187.5,668.75 209.375,690.625" stroke="black" stroke-width="1.4638012498094806" fill="none" />
  <polygon points="187.5,668.75 187.5,625.0 209.375,646.875" stroke="black" stroke-width="1.4638012498094806" fill="none" />
  <polygon points="209.375,690.625 209.375,646.875 231.25,668.75" stroke="black" stroke-width="1.4638012498094806" fill="none" />
</svg>
